<mxfile host="app.diagrams.net" modified="2024-04-02T10:25:04.450Z" agent="Mozilla/5.0 (Windows NT 10.0; Win64; x64) AppleWebKit/537.36 (KHTML, like Gecko) Chrome/123.0.0.0 Safari/537.36" etag="Rfu2LkcMDNfw3dxprRgz" version="24.1.0" type="device">
  <diagram name="페이지-1" id="EgxJTxl6f5hHMT40UnLt">
    <mxGraphModel dx="3124" dy="1700" grid="1" gridSize="10" guides="1" tooltips="1" connect="1" arrows="1" fold="1" page="1" pageScale="1" pageWidth="827" pageHeight="1169" math="0" shadow="0">
      <root>
        <mxCell id="0" />
        <mxCell id="1" parent="0" />
        <mxCell id="7V1_v0G6Yph2lXgtogHk-3" value="" style="rounded=0;whiteSpace=wrap;html=1;movable=0;resizable=0;rotatable=0;deletable=0;editable=0;locked=1;connectable=0;" vertex="1" parent="1">
          <mxGeometry x="140" y="130" width="1370" height="1331" as="geometry" />
        </mxCell>
        <mxCell id="7V1_v0G6Yph2lXgtogHk-17" style="edgeStyle=orthogonalEdgeStyle;rounded=0;orthogonalLoop=1;jettySize=auto;html=1;exitX=0.5;exitY=0.5;exitDx=0;exitDy=0;exitPerimeter=0;entryX=0;entryY=0.5;entryDx=0;entryDy=0;" edge="1" parent="1" source="7V1_v0G6Yph2lXgtogHk-1" target="7V1_v0G6Yph2lXgtogHk-9">
          <mxGeometry relative="1" as="geometry">
            <Array as="points">
              <mxPoint x="190" y="928" />
              <mxPoint x="190" y="510" />
            </Array>
          </mxGeometry>
        </mxCell>
        <mxCell id="7V1_v0G6Yph2lXgtogHk-21" style="edgeStyle=orthogonalEdgeStyle;rounded=0;orthogonalLoop=1;jettySize=auto;html=1;exitX=0.5;exitY=0.5;exitDx=0;exitDy=0;exitPerimeter=0;entryX=0;entryY=0.5;entryDx=0;entryDy=0;" edge="1" parent="1" source="7V1_v0G6Yph2lXgtogHk-1" target="7V1_v0G6Yph2lXgtogHk-10">
          <mxGeometry relative="1" as="geometry">
            <Array as="points">
              <mxPoint x="190" y="928" />
              <mxPoint x="190" y="1100" />
            </Array>
          </mxGeometry>
        </mxCell>
        <mxCell id="7V1_v0G6Yph2lXgtogHk-40" style="edgeStyle=orthogonalEdgeStyle;rounded=0;orthogonalLoop=1;jettySize=auto;html=1;exitX=0.5;exitY=0.5;exitDx=0;exitDy=0;exitPerimeter=0;entryX=0;entryY=0.5;entryDx=0;entryDy=0;" edge="1" parent="1" source="7V1_v0G6Yph2lXgtogHk-1" target="7V1_v0G6Yph2lXgtogHk-5">
          <mxGeometry relative="1" as="geometry">
            <Array as="points">
              <mxPoint x="190" y="928" />
              <mxPoint x="190" y="250" />
            </Array>
          </mxGeometry>
        </mxCell>
        <mxCell id="7V1_v0G6Yph2lXgtogHk-48" style="edgeStyle=orthogonalEdgeStyle;rounded=0;orthogonalLoop=1;jettySize=auto;html=1;exitX=0.5;exitY=0.5;exitDx=0;exitDy=0;exitPerimeter=0;entryX=0;entryY=0.5;entryDx=0;entryDy=0;" edge="1" parent="1" source="7V1_v0G6Yph2lXgtogHk-1" target="7V1_v0G6Yph2lXgtogHk-47">
          <mxGeometry relative="1" as="geometry">
            <Array as="points">
              <mxPoint x="190" y="928" />
              <mxPoint x="190" y="1320" />
            </Array>
          </mxGeometry>
        </mxCell>
        <mxCell id="7V1_v0G6Yph2lXgtogHk-1" value="사용자" style="shape=umlActor;verticalLabelPosition=bottom;verticalAlign=top;html=1;" vertex="1" parent="1">
          <mxGeometry x="50" y="870" width="60" height="115" as="geometry" />
        </mxCell>
        <mxCell id="7V1_v0G6Yph2lXgtogHk-5" value="&lt;font style=&quot;font-size: 25px;&quot;&gt;회원가입, 로그인&lt;/font&gt;" style="rounded=1;whiteSpace=wrap;html=1;" vertex="1" parent="1">
          <mxGeometry x="260" y="220" width="240" height="60" as="geometry" />
        </mxCell>
        <mxCell id="7V1_v0G6Yph2lXgtogHk-9" value="&lt;font style=&quot;font-size: 25px;&quot;&gt;음악 스트리밍&lt;/font&gt;" style="rounded=1;whiteSpace=wrap;html=1;" vertex="1" parent="1">
          <mxGeometry x="260" y="480" width="250" height="60" as="geometry" />
        </mxCell>
        <mxCell id="7V1_v0G6Yph2lXgtogHk-10" value="&lt;font style=&quot;font-size: 25px;&quot;&gt;단어장&lt;/font&gt;" style="rounded=1;whiteSpace=wrap;html=1;" vertex="1" parent="1">
          <mxGeometry x="260" y="1070" width="250" height="60" as="geometry" />
        </mxCell>
        <mxCell id="7V1_v0G6Yph2lXgtogHk-11" value="&lt;span style=&quot;font-size: 25px;&quot;&gt;학습&lt;/span&gt;" style="rounded=1;whiteSpace=wrap;html=1;" vertex="1" parent="1">
          <mxGeometry x="270" y="770" width="250" height="60" as="geometry" />
        </mxCell>
        <mxCell id="7V1_v0G6Yph2lXgtogHk-16" style="edgeStyle=orthogonalEdgeStyle;rounded=0;orthogonalLoop=1;jettySize=auto;html=1;exitX=0.5;exitY=0.5;exitDx=0;exitDy=0;exitPerimeter=0;entryX=0;entryY=0.5;entryDx=0;entryDy=0;" edge="1" parent="1" source="7V1_v0G6Yph2lXgtogHk-1" target="7V1_v0G6Yph2lXgtogHk-11">
          <mxGeometry relative="1" as="geometry">
            <Array as="points">
              <mxPoint x="190" y="928" />
              <mxPoint x="190" y="800" />
            </Array>
          </mxGeometry>
        </mxCell>
        <mxCell id="7V1_v0G6Yph2lXgtogHk-32" style="edgeStyle=orthogonalEdgeStyle;rounded=0;orthogonalLoop=1;jettySize=auto;html=1;exitX=1;exitY=0.5;exitDx=0;exitDy=0;entryX=0;entryY=0.5;entryDx=0;entryDy=0;" edge="1" parent="1" source="7V1_v0G6Yph2lXgtogHk-22" target="7V1_v0G6Yph2lXgtogHk-31">
          <mxGeometry relative="1" as="geometry">
            <mxPoint x="1540" y="230" as="targetPoint" />
            <Array as="points">
              <mxPoint x="1375" y="230" />
              <mxPoint x="1375" y="740" />
            </Array>
          </mxGeometry>
        </mxCell>
        <mxCell id="7V1_v0G6Yph2lXgtogHk-22" value="&lt;font style=&quot;font-size: 25px;&quot;&gt;인증&lt;/font&gt;" style="rounded=1;whiteSpace=wrap;html=1;" vertex="1" parent="1">
          <mxGeometry x="910" y="200" width="230" height="60" as="geometry" />
        </mxCell>
        <mxCell id="7V1_v0G6Yph2lXgtogHk-25" value="&lt;span style=&quot;font-size: 25px;&quot;&gt;인증 실패&lt;/span&gt;" style="rounded=1;whiteSpace=wrap;html=1;" vertex="1" parent="1">
          <mxGeometry x="910" y="280" width="230" height="60" as="geometry" />
        </mxCell>
        <mxCell id="7V1_v0G6Yph2lXgtogHk-26" value="&lt;font style=&quot;font-size: 25px;&quot;&gt;토큰 재발급&lt;/font&gt;" style="rounded=1;whiteSpace=wrap;html=1;" vertex="1" parent="1">
          <mxGeometry x="910" y="360" width="230" height="60" as="geometry" />
        </mxCell>
        <mxCell id="7V1_v0G6Yph2lXgtogHk-35" style="edgeStyle=orthogonalEdgeStyle;rounded=0;orthogonalLoop=1;jettySize=auto;html=1;exitX=0;exitY=0.5;exitDx=0;exitDy=0;entryX=1;entryY=0.5;entryDx=0;entryDy=0;" edge="1" parent="1" source="7V1_v0G6Yph2lXgtogHk-31" target="7V1_v0G6Yph2lXgtogHk-25">
          <mxGeometry relative="1" as="geometry" />
        </mxCell>
        <mxCell id="7V1_v0G6Yph2lXgtogHk-31" value="&lt;font style=&quot;font-size: 25px;&quot;&gt;DB&lt;/font&gt;" style="whiteSpace=wrap;html=1;aspect=fixed;" vertex="1" parent="1">
          <mxGeometry x="1610" y="690" width="100" height="100" as="geometry" />
        </mxCell>
        <mxCell id="7V1_v0G6Yph2lXgtogHk-41" value="&amp;lt;&amp;lt;include&amp;gt;&amp;gt;" style="html=1;verticalAlign=bottom;labelBackgroundColor=none;endArrow=open;endFill=0;dashed=1;rounded=0;" edge="1" parent="1" target="7V1_v0G6Yph2lXgtogHk-22">
          <mxGeometry width="160" relative="1" as="geometry">
            <mxPoint x="500" y="240" as="sourcePoint" />
            <mxPoint x="660" y="240" as="targetPoint" />
          </mxGeometry>
        </mxCell>
        <mxCell id="7V1_v0G6Yph2lXgtogHk-42" value="&amp;lt;&amp;lt;include&amp;gt;&amp;gt;" style="html=1;verticalAlign=bottom;labelBackgroundColor=none;endArrow=open;endFill=0;dashed=1;rounded=0;entryX=0;entryY=0.5;entryDx=0;entryDy=0;exitX=0.999;exitY=0.37;exitDx=0;exitDy=0;exitPerimeter=0;" edge="1" parent="1" source="7V1_v0G6Yph2lXgtogHk-5" target="7V1_v0G6Yph2lXgtogHk-25">
          <mxGeometry width="160" relative="1" as="geometry">
            <mxPoint x="530" y="280" as="sourcePoint" />
            <mxPoint x="690" y="280" as="targetPoint" />
            <Array as="points">
              <mxPoint x="630" y="270" />
            </Array>
          </mxGeometry>
        </mxCell>
        <mxCell id="7V1_v0G6Yph2lXgtogHk-44" value="&amp;lt;&amp;lt;extend&amp;gt;&amp;gt;" style="html=1;verticalAlign=bottom;labelBackgroundColor=none;endArrow=open;endFill=0;dashed=1;rounded=0;exitX=0;exitY=0.5;exitDx=0;exitDy=0;entryX=0.996;entryY=0.35;entryDx=0;entryDy=0;entryPerimeter=0;" edge="1" parent="1" source="7V1_v0G6Yph2lXgtogHk-26" target="7V1_v0G6Yph2lXgtogHk-5">
          <mxGeometry width="160" relative="1" as="geometry">
            <mxPoint x="570" y="429.29" as="sourcePoint" />
            <mxPoint x="490" y="240" as="targetPoint" />
          </mxGeometry>
        </mxCell>
        <mxCell id="7V1_v0G6Yph2lXgtogHk-47" value="&lt;span style=&quot;font-size: 25px;&quot;&gt;히스토리&lt;/span&gt;" style="rounded=1;whiteSpace=wrap;html=1;" vertex="1" parent="1">
          <mxGeometry x="260" y="1290" width="250" height="60" as="geometry" />
        </mxCell>
        <mxCell id="7V1_v0G6Yph2lXgtogHk-49" value="&lt;font style=&quot;font-size: 25px;&quot;&gt;검색&lt;/font&gt;" style="rounded=1;whiteSpace=wrap;html=1;" vertex="1" parent="1">
          <mxGeometry x="640" y="420" width="147" height="50" as="geometry" />
        </mxCell>
        <mxCell id="7V1_v0G6Yph2lXgtogHk-51" value="&lt;font style=&quot;font-size: 25px;&quot;&gt;사용자추천&lt;/font&gt;" style="rounded=1;whiteSpace=wrap;html=1;" vertex="1" parent="1">
          <mxGeometry x="640" y="485" width="147" height="50" as="geometry" />
        </mxCell>
        <mxCell id="7V1_v0G6Yph2lXgtogHk-52" value="&amp;lt;&amp;lt;extend&amp;gt;&amp;gt;" style="html=1;verticalAlign=bottom;labelBackgroundColor=none;endArrow=open;endFill=0;dashed=1;rounded=0;entryX=1;entryY=0.5;entryDx=0;entryDy=0;exitX=0;exitY=0.5;exitDx=0;exitDy=0;" edge="1" parent="1" source="7V1_v0G6Yph2lXgtogHk-49" target="7V1_v0G6Yph2lXgtogHk-9">
          <mxGeometry width="160" relative="1" as="geometry">
            <mxPoint x="430" y="760" as="sourcePoint" />
            <mxPoint x="590" y="760" as="targetPoint" />
          </mxGeometry>
        </mxCell>
        <mxCell id="7V1_v0G6Yph2lXgtogHk-53" value="&lt;font style=&quot;font-size: 25px;&quot;&gt;가사제공&lt;/font&gt;" style="rounded=1;whiteSpace=wrap;html=1;" vertex="1" parent="1">
          <mxGeometry x="640" y="550" width="147" height="50" as="geometry" />
        </mxCell>
        <mxCell id="7V1_v0G6Yph2lXgtogHk-54" value="&amp;lt;&amp;lt;extend&amp;gt;&amp;gt;" style="html=1;verticalAlign=bottom;labelBackgroundColor=none;endArrow=open;endFill=0;dashed=1;rounded=0;entryX=1;entryY=0.5;entryDx=0;entryDy=0;exitX=0;exitY=0.5;exitDx=0;exitDy=0;" edge="1" parent="1" source="7V1_v0G6Yph2lXgtogHk-53" target="7V1_v0G6Yph2lXgtogHk-9">
          <mxGeometry width="160" relative="1" as="geometry">
            <mxPoint x="440" y="730" as="sourcePoint" />
            <mxPoint x="520" y="630" as="targetPoint" />
          </mxGeometry>
        </mxCell>
        <mxCell id="7V1_v0G6Yph2lXgtogHk-57" value="&amp;lt;&amp;lt;extend&amp;gt;&amp;gt;" style="html=1;verticalAlign=bottom;labelBackgroundColor=none;endArrow=open;endFill=0;dashed=1;rounded=0;entryX=1;entryY=0.5;entryDx=0;entryDy=0;exitX=0;exitY=0.5;exitDx=0;exitDy=0;" edge="1" parent="1" source="7V1_v0G6Yph2lXgtogHk-51" target="7V1_v0G6Yph2lXgtogHk-9">
          <mxGeometry width="160" relative="1" as="geometry">
            <mxPoint x="420" y="700" as="sourcePoint" />
            <mxPoint x="580" y="700" as="targetPoint" />
          </mxGeometry>
        </mxCell>
        <mxCell id="7V1_v0G6Yph2lXgtogHk-59" value="&lt;span style=&quot;font-size: 25px;&quot;&gt;Speaking&lt;/span&gt;" style="rounded=1;whiteSpace=wrap;html=1;" vertex="1" parent="1">
          <mxGeometry x="580" y="650" width="147" height="50" as="geometry" />
        </mxCell>
        <mxCell id="7V1_v0G6Yph2lXgtogHk-60" value="&lt;font style=&quot;font-size: 25px;&quot;&gt;Words&lt;/font&gt;" style="rounded=1;whiteSpace=wrap;html=1;" vertex="1" parent="1">
          <mxGeometry x="580" y="720" width="147" height="50" as="geometry" />
        </mxCell>
        <mxCell id="7V1_v0G6Yph2lXgtogHk-63" value="&amp;lt;&amp;lt;include&amp;gt;&amp;gt;" style="html=1;verticalAlign=bottom;labelBackgroundColor=none;endArrow=open;endFill=0;dashed=1;rounded=0;exitX=1;exitY=0.5;exitDx=0;exitDy=0;entryX=0;entryY=0.5;entryDx=0;entryDy=0;" edge="1" parent="1" source="7V1_v0G6Yph2lXgtogHk-11" target="7V1_v0G6Yph2lXgtogHk-59">
          <mxGeometry width="160" relative="1" as="geometry">
            <mxPoint x="740" y="844" as="sourcePoint" />
            <mxPoint x="1150" y="836" as="targetPoint" />
          </mxGeometry>
        </mxCell>
        <mxCell id="7V1_v0G6Yph2lXgtogHk-64" value="&amp;lt;&amp;lt;include&amp;gt;&amp;gt;" style="html=1;verticalAlign=bottom;labelBackgroundColor=none;endArrow=open;endFill=0;dashed=1;rounded=0;exitX=1;exitY=0.5;exitDx=0;exitDy=0;entryX=0;entryY=0.5;entryDx=0;entryDy=0;" edge="1" parent="1" source="7V1_v0G6Yph2lXgtogHk-11" target="7V1_v0G6Yph2lXgtogHk-60">
          <mxGeometry width="160" relative="1" as="geometry">
            <mxPoint x="520" y="850" as="sourcePoint" />
            <mxPoint x="610" y="750" as="targetPoint" />
          </mxGeometry>
        </mxCell>
        <mxCell id="7V1_v0G6Yph2lXgtogHk-65" value="&amp;lt;&amp;lt;include&amp;gt;&amp;gt;" style="html=1;verticalAlign=bottom;labelBackgroundColor=none;endArrow=open;endFill=0;dashed=1;rounded=0;exitX=1;exitY=0.5;exitDx=0;exitDy=0;entryX=0;entryY=0.5;entryDx=0;entryDy=0;" edge="1" parent="1" source="7V1_v0G6Yph2lXgtogHk-11" target="7V1_v0G6Yph2lXgtogHk-61">
          <mxGeometry width="160" relative="1" as="geometry">
            <mxPoint x="530" y="860" as="sourcePoint" />
            <mxPoint x="620" y="760" as="targetPoint" />
          </mxGeometry>
        </mxCell>
        <mxCell id="7V1_v0G6Yph2lXgtogHk-97" style="edgeStyle=orthogonalEdgeStyle;rounded=0;orthogonalLoop=1;jettySize=auto;html=1;exitX=1;exitY=0.5;exitDx=0;exitDy=0;entryX=0.5;entryY=0;entryDx=0;entryDy=0;" edge="1" parent="1" source="7V1_v0G6Yph2lXgtogHk-73" target="7V1_v0G6Yph2lXgtogHk-82">
          <mxGeometry relative="1" as="geometry">
            <mxPoint x="1186.75" y="890" as="targetPoint" />
          </mxGeometry>
        </mxCell>
        <mxCell id="7V1_v0G6Yph2lXgtogHk-73" value="&lt;span style=&quot;font-size: 25px;&quot;&gt;채점&lt;/span&gt;" style="rounded=1;whiteSpace=wrap;html=1;" vertex="1" parent="1">
          <mxGeometry x="993" y="740" width="147" height="50" as="geometry" />
        </mxCell>
        <mxCell id="7V1_v0G6Yph2lXgtogHk-76" value="&amp;lt;&amp;lt;extend&amp;gt;&amp;gt;" style="html=1;verticalAlign=bottom;labelBackgroundColor=none;endArrow=open;endFill=0;dashed=1;rounded=0;entryX=1;entryY=0.5;entryDx=0;entryDy=0;exitX=0;exitY=0.5;exitDx=0;exitDy=0;" edge="1" parent="1" source="7V1_v0G6Yph2lXgtogHk-61" target="7V1_v0G6Yph2lXgtogHk-11">
          <mxGeometry width="160" relative="1" as="geometry">
            <mxPoint x="610" y="920" as="sourcePoint" />
            <mxPoint x="770" y="920" as="targetPoint" />
          </mxGeometry>
        </mxCell>
        <mxCell id="7V1_v0G6Yph2lXgtogHk-81" value="&lt;span style=&quot;font-size: 25px;&quot;&gt;단어 조회&lt;/span&gt;" style="rounded=1;whiteSpace=wrap;html=1;" vertex="1" parent="1">
          <mxGeometry x="570" y="1080" width="130" height="50" as="geometry" />
        </mxCell>
        <mxCell id="7V1_v0G6Yph2lXgtogHk-82" value="&lt;span style=&quot;font-size: 25px;&quot;&gt;틀린 단어 조회&lt;/span&gt;" style="rounded=1;whiteSpace=wrap;html=1;" vertex="1" parent="1">
          <mxGeometry x="761.5" y="1000" width="178.5" height="50" as="geometry" />
        </mxCell>
        <mxCell id="7V1_v0G6Yph2lXgtogHk-86" value="&amp;lt;&amp;lt;include&amp;gt;&amp;gt;" style="html=1;verticalAlign=bottom;labelBackgroundColor=none;endArrow=open;endFill=0;dashed=1;rounded=0;exitX=1;exitY=0.5;exitDx=0;exitDy=0;entryX=0;entryY=0.5;entryDx=0;entryDy=0;" edge="1" parent="1" source="7V1_v0G6Yph2lXgtogHk-10" target="7V1_v0G6Yph2lXgtogHk-81">
          <mxGeometry width="160" relative="1" as="geometry">
            <mxPoint x="510" y="250" as="sourcePoint" />
            <mxPoint x="920" y="242" as="targetPoint" />
            <Array as="points" />
          </mxGeometry>
        </mxCell>
        <mxCell id="7V1_v0G6Yph2lXgtogHk-88" value="&amp;lt;&amp;lt;include&amp;gt;&amp;gt;" style="html=1;verticalAlign=bottom;labelBackgroundColor=none;endArrow=open;endFill=0;dashed=1;rounded=0;exitX=1;exitY=0.5;exitDx=0;exitDy=0;" edge="1" parent="1" source="7V1_v0G6Yph2lXgtogHk-81">
          <mxGeometry width="160" relative="1" as="geometry">
            <mxPoint x="530" y="1120" as="sourcePoint" />
            <mxPoint x="760" y="1110" as="targetPoint" />
            <Array as="points" />
          </mxGeometry>
        </mxCell>
        <mxCell id="7V1_v0G6Yph2lXgtogHk-92" value="" style="html=1;verticalAlign=bottom;labelBackgroundColor=none;endArrow=open;endFill=0;dashed=1;rounded=0;entryX=1;entryY=0.5;entryDx=0;entryDy=0;exitX=0;exitY=0.5;exitDx=0;exitDy=0;" edge="1" parent="1" source="7V1_v0G6Yph2lXgtogHk-73" target="7V1_v0G6Yph2lXgtogHk-59">
          <mxGeometry width="160" relative="1" as="geometry">
            <mxPoint x="1080" y="905" as="sourcePoint" />
            <mxPoint x="520" y="800" as="targetPoint" />
          </mxGeometry>
        </mxCell>
        <mxCell id="7V1_v0G6Yph2lXgtogHk-61" value="&lt;span style=&quot;font-size: 25px;&quot;&gt;Grammar&lt;/span&gt;" style="rounded=1;whiteSpace=wrap;html=1;" vertex="1" parent="1">
          <mxGeometry x="580" y="790" width="147" height="50" as="geometry" />
        </mxCell>
        <mxCell id="7V1_v0G6Yph2lXgtogHk-94" value="" style="html=1;verticalAlign=bottom;labelBackgroundColor=none;endArrow=open;endFill=0;dashed=1;rounded=0;entryX=1;entryY=0.5;entryDx=0;entryDy=0;exitX=0;exitY=0.5;exitDx=0;exitDy=0;" edge="1" parent="1" source="7V1_v0G6Yph2lXgtogHk-73" target="7V1_v0G6Yph2lXgtogHk-60">
          <mxGeometry width="160" relative="1" as="geometry">
            <mxPoint x="1000" y="730" as="sourcePoint" />
            <mxPoint x="737" y="685" as="targetPoint" />
          </mxGeometry>
        </mxCell>
        <mxCell id="7V1_v0G6Yph2lXgtogHk-95" value="" style="html=1;verticalAlign=bottom;labelBackgroundColor=none;endArrow=open;endFill=0;dashed=1;rounded=0;entryX=1;entryY=0.5;entryDx=0;entryDy=0;exitX=0;exitY=0.5;exitDx=0;exitDy=0;" edge="1" parent="1" source="7V1_v0G6Yph2lXgtogHk-73" target="7V1_v0G6Yph2lXgtogHk-61">
          <mxGeometry width="160" relative="1" as="geometry">
            <mxPoint x="1010" y="730" as="sourcePoint" />
            <mxPoint x="747" y="695" as="targetPoint" />
          </mxGeometry>
        </mxCell>
        <mxCell id="7V1_v0G6Yph2lXgtogHk-100" value="&lt;span style=&quot;font-size: 25px;&quot;&gt;단어 CRUD&lt;/span&gt;" style="rounded=1;whiteSpace=wrap;html=1;" vertex="1" parent="1">
          <mxGeometry x="760" y="1080" width="148.5" height="50" as="geometry" />
        </mxCell>
        <mxCell id="7V1_v0G6Yph2lXgtogHk-103" value="&amp;lt;&amp;lt;extend&amp;gt;&amp;gt;" style="html=1;verticalAlign=bottom;labelBackgroundColor=none;endArrow=open;endFill=0;dashed=1;rounded=0;entryX=1;entryY=0.5;entryDx=0;entryDy=0;exitX=0;exitY=0.5;exitDx=0;exitDy=0;" edge="1" parent="1" source="7V1_v0G6Yph2lXgtogHk-82" target="7V1_v0G6Yph2lXgtogHk-81">
          <mxGeometry width="160" relative="1" as="geometry">
            <mxPoint x="790" y="1090" as="sourcePoint" />
            <mxPoint x="950" y="1090" as="targetPoint" />
          </mxGeometry>
        </mxCell>
        <mxCell id="7V1_v0G6Yph2lXgtogHk-106" value="" style="edgeStyle=orthogonalEdgeStyle;rounded=0;orthogonalLoop=1;jettySize=auto;html=1;exitX=0;exitY=0.75;exitDx=0;exitDy=0;" edge="1" parent="1" source="7V1_v0G6Yph2lXgtogHk-31" target="7V1_v0G6Yph2lXgtogHk-105">
          <mxGeometry relative="1" as="geometry">
            <mxPoint x="1610" y="765" as="sourcePoint" />
            <mxPoint x="510" y="1320" as="targetPoint" />
            <Array as="points">
              <mxPoint x="1610" y="770" />
              <mxPoint x="1380" y="770" />
              <mxPoint x="1380" y="1320" />
            </Array>
          </mxGeometry>
        </mxCell>
        <mxCell id="7V1_v0G6Yph2lXgtogHk-107" style="edgeStyle=orthogonalEdgeStyle;rounded=0;orthogonalLoop=1;jettySize=auto;html=1;exitX=0;exitY=0.5;exitDx=0;exitDy=0;entryX=1;entryY=0.5;entryDx=0;entryDy=0;" edge="1" parent="1" source="7V1_v0G6Yph2lXgtogHk-105" target="7V1_v0G6Yph2lXgtogHk-47">
          <mxGeometry relative="1" as="geometry" />
        </mxCell>
        <mxCell id="7V1_v0G6Yph2lXgtogHk-105" value="&lt;span style=&quot;font-size: 25px;&quot;&gt;학습 결과 로그&lt;/span&gt;" style="rounded=1;whiteSpace=wrap;html=1;" vertex="1" parent="1">
          <mxGeometry x="830" y="1295" width="178.5" height="50" as="geometry" />
        </mxCell>
        <mxCell id="7V1_v0G6Yph2lXgtogHk-108" value="&lt;span style=&quot;font-size: 25px;&quot;&gt;검색&lt;/span&gt;" style="rounded=1;whiteSpace=wrap;html=1;" vertex="1" parent="1">
          <mxGeometry x="769.25" y="1380" width="130" height="50" as="geometry" />
        </mxCell>
        <mxCell id="7V1_v0G6Yph2lXgtogHk-109" value="&lt;span style=&quot;font-size: 25px;&quot;&gt;정렬&lt;/span&gt;" style="rounded=1;whiteSpace=wrap;html=1;" vertex="1" parent="1">
          <mxGeometry x="950" y="1380" width="130" height="50" as="geometry" />
        </mxCell>
        <mxCell id="7V1_v0G6Yph2lXgtogHk-110" style="edgeStyle=orthogonalEdgeStyle;rounded=0;orthogonalLoop=1;jettySize=auto;html=1;exitX=0.5;exitY=0;exitDx=0;exitDy=0;entryX=0.401;entryY=0.98;entryDx=0;entryDy=0;entryPerimeter=0;" edge="1" parent="1" source="7V1_v0G6Yph2lXgtogHk-108" target="7V1_v0G6Yph2lXgtogHk-105">
          <mxGeometry relative="1" as="geometry" />
        </mxCell>
        <mxCell id="7V1_v0G6Yph2lXgtogHk-111" style="edgeStyle=orthogonalEdgeStyle;rounded=0;orthogonalLoop=1;jettySize=auto;html=1;exitX=0.5;exitY=0;exitDx=0;exitDy=0;entryX=0.599;entryY=1.003;entryDx=0;entryDy=0;entryPerimeter=0;" edge="1" parent="1" source="7V1_v0G6Yph2lXgtogHk-109" target="7V1_v0G6Yph2lXgtogHk-105">
          <mxGeometry relative="1" as="geometry" />
        </mxCell>
      </root>
    </mxGraphModel>
  </diagram>
</mxfile>
